<svg width="22" height="22" viewBox="0 0 22 22" xmlns="http://www.w3.org/2000/svg">
    <g fill="#367CF6" fill-rule="nonzero">
        <path d="M19.69 0H2.31A2.312 2.312 0 0 0 0 2.31v17.38A2.312 2.312 0 0 0 2.31 22h17.38A2.312 2.312 0 0 0 22 19.69V2.31A2.312 2.312 0 0 0 19.69 0z" fill-opacity=".162"/>
        <path d="M16.87 11.616h-5.265v5.321a.871.871 0 0 1-.868.868.871.871 0 0 1-.868-.868v-5.321H4.605a.871.871 0 0 1-.868-.868c0-.477.391-.868.868-.868H9.86V4.673c0-.477.391-.868.868-.868s.868.39.868.868V9.87h5.264c.477 0 .868.391.868.868a.871.871 0 0 1-.859.878z"/>
    </g>
</svg>
