<svg width="17" height="17" viewBox="0 0 17 17" xmlns="http://www.w3.org/2000/svg">
    <g fill="#367CF6" fill-rule="nonzero">
        <path d="M11.703 1.19a7.963 7.963 0 0 0-3.01-.584 8 8 0 0 0-3.01.585 7.931 7.931 0 0 0-2.647 1.758A7.98 7.98 0 0 0 .693 8.606a8 8 0 0 0 .585 3.01 7.931 7.931 0 0 0 1.758 2.646 7.98 7.98 0 0 0 5.657 2.344c1.039 0 2.052-.199 3.01-.586a7.931 7.931 0 0 0 2.647-1.758 7.98 7.98 0 0 0 2.343-5.656 8 8 0 0 0-.585-3.01 7.931 7.931 0 0 0-1.758-2.647 7.98 7.98 0 0 0-2.647-1.758zm1.837 12.265a6.864 6.864 0 0 1-9.696 0 6.864 6.864 0 0 1 0-9.696 6.864 6.864 0 0 1 9.696 0 6.864 6.864 0 0 1 0 9.696z"/>
        <path d="M8.657 3.842a.575.575 0 0 0-.573.574v3.686H4.398a.575.575 0 0 0-.573.573c0 .315.258.573.573.573h3.686v3.686c0 .315.258.573.573.573a.575.575 0 0 0 .573-.573V9.248h3.686a.575.575 0 0 0 .574-.573.575.575 0 0 0-.574-.573H9.23V4.416a.575.575 0 0 0-.573-.574z"/>
    </g>
</svg>
