<svg width="14" height="15" viewBox="0 0 14 15" xmlns="http://www.w3.org/2000/svg">
    <path d="M3.75 1.5H1.369A1.37 1.37 0 0 0 0 2.869V13.63A1.37 1.37 0 0 0 1.369 15H12.13a1.37 1.37 0 0 0 1.369-1.369V2.87A1.37 1.37 0 0 0 12.131 1.5H9.75v.135C9.75 2.389 9.143 3 8.389 3H5.11A1.363 1.363 0 0 1 3.75 1.635V1.5zm6.506 5.63L6.74 11.167a.587.587 0 0 1-.49.245c-.163 0-.354-.043-.485-.165L3.679 9.471a.732.732 0 0 1-.08-.973c.295-.304.702-.325.983-.09l1.581 1.335 3.062-3.52c.276-.28.683-.298.964-.064.281.284.302.692.067.972zM4.5 1.126C4.5.505 4.999 0 5.623 0h2.252c.62 0 1.123.499 1.123 1.125 0 .62-.499 1.125-1.123 1.125H5.623A1.12 1.12 0 0 1 4.5 1.125z" fill="#FFF" fill-rule="nonzero"/>
</svg>
