<svg width="18" height="16" viewBox="0 0 18 16" xmlns="http://www.w3.org/2000/svg">
    <g fill="" fill-rule="nonzero">
        <path d="M8.867.007a3.489 3.489 0 0 1 3.457 3.024h3.985a.698.698 0 0 1 .067 1.392l-.067.003h-1.163v7.907a3.488 3.488 0 0 1-3.375 3.486l-.113.002H6.076a3.488 3.488 0 0 1-3.486-3.375l-.002-.113V4.426H1.425a.698.698 0 0 1-.067-1.392l.067-.003h3.984A3.489 3.489 0 0 1 8.867.007zm4.884 4.419H3.983v7.907c0 1.117.878 2.038 1.995 2.09l.098.003h5.582a2.093 2.093 0 0 0 2.09-1.995l.003-.098V4.426zM8.867 1.403c-.977 0-1.824.675-2.041 1.628h4.082a2.094 2.094 0 0 0-2.041-1.628z"/>
        <path d="M7.239 6.984c.36 0 .66.273.694.63l.004.068v3.72a.698.698 0 0 1-1.393.068l-.003-.067V7.682c0-.386.313-.698.698-.698zm3.256 0c.36 0 .66.273.694.63l.003.068v3.72a.698.698 0 0 1-1.392.068l-.003-.067V7.682c0-.386.312-.698.698-.698z"/>
    </g>
</svg>
