<?xml version="1.0" encoding="UTF-8"?>
<svg width="17px" height="14px" viewBox="0 0 17 14" version="1.1" xmlns="http://www.w3.org/2000/svg" xmlns:xlink="http://www.w3.org/1999/xlink">
    <!-- Generator: Sketch 63.1 (92452) - https://sketch.com -->
    <title>fasongyoujian-30</title>
    <desc>Created with Sketch.</desc>
    <g id="页面-1" stroke="none" stroke-width="1" fill="" fill-rule="evenodd">
        <g id="v2.0媒体库-列表" transform="translate(-987.000000, -415.000000)" fill="" fill-rule="nonzero">
            <g id="编组-5" transform="translate(264.000000, 92.000000)">
                <g id="编组-10" transform="translate(0.000000, 88.000000)">
                    <g id="编组-3" transform="translate(24.000000, 72.000000)">
                        <g id="1" transform="translate(621.000000, 17.000000)">
                            <g id="fasongyoujian-30" transform="translate(78.000000, 146.000000)">
                                <path d="M7.90582386,12.8973011 L1.71188447,12.8973011 C1.62703599,12.8973011 1.5421875,12.8973011 1.45733902,12.8124526 C1.45733902,12.8124526 1.5421875,12.8124526 1.5421875,12.7276042 L6.97249053,7.46699811 L7.82097539,8.0609375 C7.90582386,8.14578598 7.99067236,8.14578598 8.16036931,8.14578598 C8.24521779,8.14578598 8.41491476,8.14578598 8.49976325,8.0609375 L15.0330966,3.05487689 L15.0330966,6.53366478 C15.0330966,6.87305872 15.287642,7.12760417 15.5421875,7.12760417 C15.796733,7.12760417 16.0512784,6.87305872 16.0512784,6.53366478 L16.0512784,1.69730114 C16.0512784,0.763967805 15.2876421,0.000331442708 14.3543087,0.000331442708 L1.88158144,0.000331442708 C0.863399633,0.000331442708 0.014914776,0.848816299 0.014914776,1.86699811 L0.014914776,12.3033617 C0.014914776,13.2366951 0.778551138,14.0003314 1.71188447,14.0003314 L7.99067236,14.0003314 C8.3300663,14.0003314 8.49976327,13.745786 8.49976325,13.4063921 C8.49976323,13.0669981 8.2452178,12.8973011 7.90582386,12.8973011 Z M1.11794508,11.5397254 L1.11794508,3.22457386 L5.95430872,6.78821022 L1.11794508,11.5397254 Z M1.88158144,1.18821022 L14.4391572,1.18821022 C14.6937026,1.18821022 14.9482481,1.44275567 14.9482481,1.69730114 L8.07552083,6.9579072 L1.11794508,1.86699811 C1.20279356,1.44275569 1.45733902,1.18821022 1.88158144,1.18821022 Z" id="形状"></path>
                                <path d="M16.0512784,10.6063921 L13.6755208,8.23063447 C13.4209754,7.97608902 13.0815814,7.97608902 12.9118845,8.23063447 C12.7421875,8.48517992 12.657339,8.82457386 12.9118845,8.99427083 L14.2694602,10.3518466 L10.027036,10.3518466 C9.68764203,10.3518466 9.51794508,10.606392 9.51794508,10.945786 C9.51794508,11.2851799 9.77249053,11.5397254 10.027036,11.5397254 L14.3543087,11.5397254 L12.9118845,12.9821496 C12.657339,13.2366951 12.657339,13.576089 12.9118845,13.745786 C12.9967329,13.8306345 13.1664299,13.9154829 13.3361269,13.9154829 C13.5058239,13.9154829 13.5906723,13.8306345 13.7603693,13.745786 L16.1361269,11.3700284 C16.2209754,11.2003314 16.2209754,10.776089 16.0512784,10.6063921 L16.0512784,10.6063921 Z" id="路径"></path>
                            </g>
                        </g>
                    </g>
                </g>
            </g>
        </g>
    </g>
</svg>