<?xml version="1.0" encoding="UTF-8"?>
<svg width="31px" height="31px" viewBox="0 0 31 31" version="1.1" xmlns="http://www.w3.org/2000/svg" xmlns:xlink="http://www.w3.org/1999/xlink">
    <title>英</title>
    <g id="首页/新闻/活动/专题" stroke="none" stroke-width="1" fill="none" fill-rule="evenodd">
        <g id="中英切换" transform="translate(-1032.000000, -39.000000)" fill-rule="nonzero">
            <g id="导航" transform="translate(48.000000, 24.000000)">
                <g id="zhongyingwen" transform="translate(984.000000, 15.000000)">
                    <path d="M28,15 C29.6568542,15 31,16.3431458 31,18 L31,28 C31,29.6568542 29.6568542,31 28,31 L18,31 C16.3431458,31 15,29.6568542 15,28 L15,18 C15,16.3431458 16.3431458,15 18,15 L28,15 Z M27.570108,16.4206038 L18.4460345,16.4206038 C17.341465,16.4206038 16.4460345,17.3160343 16.4460345,18.4206038 L16.4460345,27.5749454 C16.4460345,28.6795149 17.341465,29.5749454 18.4460345,29.5749454 L27.570108,29.5749454 C28.6746775,29.5749454 29.570108,28.6795149 29.570108,27.5749454 L29.570108,18.4206038 C29.570108,17.3160343 28.6746775,16.4206038 27.570108,16.4206038 Z M23.7282218,19.0128987 L23.7282218,20.751686 L27.0424831,20.751686 L27.0424831,25.3560436 L26.1791146,25.3560436 L26.1791146,24.8135457 L23.7282218,24.8135457 L23.7282218,28.0128987 L22.9066123,28.0128987 L22.9066123,24.8135457 L20.5253503,24.8135457 L20.5253503,25.3560436 L19.6619819,25.3560436 L19.6619819,20.751686 L22.9066123,20.751686 L22.8648534,19.0128987 L23.7282218,19.0128987 Z M22.8927008,21.641961 L20.5253503,21.641961 L20.5253748,23.9232707 L22.8927008,23.9232707 L22.8927008,21.641961 Z M26.1791146,21.641961 L23.7282218,21.641961 L23.7282218,23.9232707 L26.1791146,23.9232707 L26.1791146,21.641961 Z" id="形状" fill="#333F48"></path>
                    <g id="编组">
                        <rect id="矩形" fill="#333F48" x="0" y="0" width="22" height="22" rx="3"></rect>
                        <polygon id="E" fill="#FFFFFF" points="14.7430837 16.146 14.7430837 14.7454398 8.40865546 14.7454398 8.40865546 11.7202297 14.168854 11.7202297 14.168854 10.3196695 8.40865546 10.3196695 8.40865546 7.54656022 14.5049885 7.54656022 14.5049885 6.146 6.77 6.146 6.77 16.146"></polygon>
                    </g>
                </g>
            </g>
        </g>
    </g>
</svg>