<svg width="15" height="15" viewBox="0 0 15 15" xmlns="http://www.w3.org/2000/svg">
    <g fill="#367CF6" fill-rule="nonzero">
        <path d="M.115 2.577A2.462 2.462 0 0 1 2.577.115h1.846a2.462 2.462 0 0 1 2.462 2.462v1.846a2.462 2.462 0 0 1-2.462 2.462H2.577A2.462 2.462 0 0 1 .115 4.423V2.577zm0 8a2.462 2.462 0 0 1 2.462-2.462h1.846a2.462 2.462 0 0 1 2.462 2.462v1.846a2.462 2.462 0 0 1-2.462 2.462H2.577a2.462 2.462 0 0 1-2.462-2.462v-1.846zm10.462-2.462a2.462 2.462 0 0 0-2.462 2.462v1.846a2.462 2.462 0 0 0 2.462 2.462h1.846a2.462 2.462 0 0 0 2.462-2.462v-1.846a2.462 2.462 0 0 0-2.462-2.462h-1.846zM8.115 2.577A2.462 2.462 0 0 1 10.577.115h1.846a2.462 2.462 0 0 1 2.462 2.462v1.846a2.462 2.462 0 0 1-2.462 2.462h-1.846a2.462 2.462 0 0 1-2.462-2.462V2.577z"/>
    </g>
</svg>
