<svg width="16" height="16" viewBox="0 0 16 16" xmlns="http://www.w3.org/2000/svg">
    <g fill-rule="nonzero" fill="none">
        <path d="M0 2a.8.8 0 0 1 .8-.8h5.473a.8.8 0 0 1 .735.485L7.4 2.6h7.8a.8.8 0 0 1 .8.8v8.4a.8.8 0 0 1-.8.8H.8a.8.8 0 0 1-.8-.8V2z" fill="#FFA000"/>
        <path d="M2.2 3.9h11.6c.533 0 .8.267.8.8v7.2c0 .533-.267.8-.8.8H2.2c-.533 0-.8-.267-.8-.8V4.7c0-.533.267-.8.8-.8z" fill="#FFF"/>
        <path d="M.8 5.2h14.4c.533 0 .8.267.8.8v8c0 .533-.267.8-.8.8H.8c-.533 0-.8-.267-.8-.8V6c0-.533.267-.8.8-.8z" fill="#FFCA28"/>
    </g>
</svg>
