<svg width="18" height="15" viewBox="0 0 18 15" xmlns="http://www.w3.org/2000/svg">
    <g fill-rule="nonzero" fill="none">
        <path d="M1.44 5.449 0 11.322V1.052C0 .473.424.002.947 0h5.397c.251 0 .492.11.67.308l.66 1.157c.024.026 2.452.047 7.283.061.522.001.946.472.946 1.053v1.474H3.084c-.768.001-1.44.572-1.643 1.396z" fill="#FFA000"/>
        <path d="M17.805 5.308a.91.91 0 0 0-.752-.413H3.084c-.426 0-.8.318-.913.776l-1.962 8c-.077.316-.018.655.161.916.18.26.457.413.752.413h13.969c.427 0 .8-.319.913-.776l1.962-8a1.139 1.139 0 0 0-.16-.916z" fill="#FFCA28"/>
    </g>
</svg>
