<svg width="32" height="20" viewBox="0 0 32 20" xmlns="http://www.w3.org/2000/svg">
    <path d="M25.71.002H7.152c-1.183 0-2.143.96-2.143 2.143v15.704c0 1.183.96 2.142 2.143 2.142h18.56c1.183 0 2.142-.959 2.142-2.142V2.145c0-1.183-.959-2.143-2.142-2.143zM7.15 1.43h18.561c.395 0 .714.32.714.714v8.409c-1.15-.945-3.145-2.217-5.537-2.217-2.206 0-4.381 1.71-6.484 3.363-1.612 1.266-3.279 2.576-4.448 2.576-1.64 0-3.044-1.206-3.52-1.666V2.144c0-.394.32-.714.715-.714zm18.561 17.134H7.151a.714.714 0 0 1-.715-.715v-3.388c.856.606 2.094 1.243 3.52 1.243 1.664 0 3.445-1.4 5.33-2.882 1.912-1.503 3.89-3.058 5.602-3.058 3.068 0 5.502 2.701 5.526 2.729l.011-.01v5.366c0 .395-.32.715-.714.715zm-13.57-8.56a2.86 2.86 0 1 0 0-5.718 2.86 2.86 0 0 0 0 5.719zm.01-4.29a1.424 1.424 0 1 1 0 2.847 1.424 1.424 0 0 1 0-2.848z" fill="#000" fill-rule="nonzero"/>
</svg>
