<?xml version="1.0" encoding="UTF-8"?>
<svg width="95px" height="88px" viewBox="0 0 95 88" version="1.1" xmlns="http://www.w3.org/2000/svg" xmlns:xlink="http://www.w3.org/1999/xlink">
    <title>logo</title>
    <g id="portal后台新增页面0411" stroke="none" stroke-width="1" fill="none" fill-rule="evenodd">
        <g id="logo设计" transform="translate(-407.000000, -375.000000)" fill-rule="nonzero">
            <g id="logo" transform="translate(407.000000, 375.000000)">
                <path d="M18.3289321,83.077862 C15.6466665,87.7761545 9.61156886,89.4168282 4.91760406,86.6575135 C0.223639258,83.8981987 -1.41552309,77.932113 1.34124992,73.2338204 C4.02351552,68.5355278 10.0586131,66.8948542 14.7525779,69.6541689 C19.4465427,72.3389075 21.0111977,78.3795694 18.3289321,83.077862 Z M57.6688275,14.7661796 L54.3905029,20.433961 C51.7082373,25.1322536 45.6731397,26.7729272 40.9791749,24.0136125 C36.2852101,21.3288739 34.6460478,15.288212 37.4028208,10.5899195 L40.6811454,4.92213802 C43.363411,0.22384545 49.3985086,-1.41682818 54.0924734,1.34248654 C58.7864382,4.02722515 60.4256005,10.067887 57.6688275,14.7661796 Z M77.1152531,44.969489 L60.7236301,73.3829726 C58.0413645,78.0812652 52.0062669,79.7219388 47.3123021,76.9626241 C42.6183373,74.2778855 40.9791749,68.2372236 43.735948,63.538931 L60.127571,35.1254474 C62.8098366,30.4271548 68.8449342,28.7864812 73.538899,31.5457959 C78.2328638,34.2305345 79.8720261,40.2711964 77.1152531,44.969489 L77.1152531,44.969489 Z M40.5321307,42.8067828 L30.6971568,59.8847035 C28.0148912,64.582996 21.9797936,66.2236697 17.2858288,63.4643549 C12.591864,60.7796163 10.9527017,54.7389544 13.7094747,50.0406619 L23.5444485,32.9627412 C26.2267141,28.2644487 32.2618117,26.623775 36.9557765,29.3830897 C41.6497413,32.0678284 43.2143963,38.1084902 40.5321307,42.8067828 L40.5321307,42.8067828 Z" id="形状" fill="#367CF6"></path>
                <path d="M93.655891,83.003286 C90.9736254,87.7015786 84.9385278,89.3422522 80.244563,86.5829375 C75.5505982,83.8981989 73.9114359,77.857537 76.6682089,73.1592444 C79.3504745,68.4609518 85.3855721,66.8202782 90.0795369,69.5795929 C94.7735017,72.2643315 96.3381566,78.2304173 93.655891,83.003286 Z" id="路径" fill="#FF8D3B"></path>
            </g>
        </g>
    </g>
</svg>