<svg width="17" height="16" xmlns="http://www.w3.org/2000/svg">
    <path d="M7.51 15.118c0 .274-.24.514-.514.514-.034 0-.102 0-.137-.034L.722 13.472c-.446-.137-.72-.548-.72-1.028V1.095C.002.512.482.032 1.065.032c.103 0 .24.034.343.069l5.417 1.851c.411.172.686.549.686.994v12.172zm8.915-2.64c0 .446-.274.891-.72 1.028l-6.137 2.126c-.274.069-.549-.068-.617-.308 0-.035-.035-.103-.035-.138V2.912c0-.446.275-.823.686-.994L15.02.066c.549-.205 1.166.103 1.372.686.034.103.068.24.068.343l-.034 11.383z" fill="#FFF" fill-rule="nonzero"/>
</svg>
