<svg width="18" height="14" viewBox="0 0 18 14" xmlns="http://www.w3.org/2000/svg">
    <path d="M17.61 8.815a8.769 8.769 0 0 1-1.192 4.426.967.967 0 0 1-.84.463H2.04a.964.964 0 0 1-.838-.463A8.801 8.801 0 0 1 8.808.014c4.861 0 8.802 3.94 8.803 8.801zm-13.69.978a.979.979 0 1 0-1.958.002.979.979 0 0 0 1.957-.002zm1.466-4.89a.979.979 0 1 0-1.956-.065.979.979 0 0 0 1.956.065zm6.1-2.162a.73.73 0 0 0-.928.463L8.683 8.83a1.95 1.95 0 0 0-1.83 1.942c0 .357.102.69.27.979h3.37c.167-.29.271-.622.271-.979 0-.594-.271-1.12-.69-1.479l1.875-5.623a.733.733 0 0 0-.463-.928zm-3.655.206c0 .54.438.978.977.978a.947.947 0 0 0 .539-.185l.281-.845c.027-.074.074-.133.108-.202a.965.965 0 0 0-.928-.723.977.977 0 0 0-.977.977zm5.378 2.935a.977.977 0 0 0 0-1.955.952.952 0 0 0-.338.068l-.475 1.422c.173.285.48.46.813.465zm2.446 3.91a.979.979 0 1 0-1.957.003.979.979 0 0 0 1.957-.002z" fill="#FFF" fill-rule="nonzero"/>
</svg>
