<svg width="13" height="15" viewBox="0 0 13 15" xmlns="http://www.w3.org/2000/svg">
    <g fill="#FFF" fill-rule="nonzero">
        <path d="M11.99 1.846 6.176 0 .364 1.846A.521.521 0 0 0 0 2.348v7.347c.012.05.286 1.26 1.474 2.431.914.9 3.107 2.059 4.064 2.56.15.08.22.108.283.143l.284.142c.075.04.21.038.284 0l.284-.142c.56-.274 3.149-1.662 4.205-2.703 1.19-1.171 1.465-2.38 1.476-2.43V2.347a.52.52 0 0 0-.364-.502zM6.288 13.88l-.025-.013h.06a.09.09 0 0 1-.035.013zm1.347-4.318h-.94v1.323a.556.556 0 0 1-1.111 0V7.474l.002-.03a2.477 2.477 0 0 1-.305-.114 1.965 1.965 0 0 1-.832-.759 1.944 1.944 0 0 1-.278-1.142c.038-.447.2-.836.485-1.183.495-.6 1.403-.843 2.132-.577a2.08 2.08 0 0 1 1 .76c.223.313.336.702.345 1.084 0 .011.002.02 0 .033 0 .013 0 .026-.002.04-.026.847-.61 1.646-1.437 1.867v.975h.939c.307 0 .556.25.556.556v.023h.002c0 .307-.25.556-.556.556z"/>
        <path d="M6.816 6.05a1.573 1.573 0 0 0 .104-.177c.025-.07.044-.142.06-.216l.005-.112c0-.036-.002-.075-.006-.11a1.455 1.455 0 0 0-.06-.217 1.756 1.756 0 0 0-.072-.133.497.497 0 0 1-.042-.061c-.021-.023-.042-.048-.065-.069a1.158 1.158 0 0 0-.106-.092 1.57 1.57 0 0 0-.157-.09 1.706 1.706 0 0 0-.215-.06 1.486 1.486 0 0 0-.224 0 1.37 1.37 0 0 0-.214.06c-.046.022-.09.046-.133.073a.497.497 0 0 1-.061.042 1.158 1.158 0 0 0-.161.17 1.57 1.57 0 0 0-.09.157c-.025.071-.044.142-.06.215-.005.075-.005.15 0 .224.014.073.035.146.06.215.023.046.046.088.073.132.005.006.019.025.042.062a1.158 1.158 0 0 0 .17.161c.05.032.104.063.157.09.071.025.142.044.215.06.075.005.15.005.224 0a1.37 1.37 0 0 0 .215-.06c.046-.023.088-.046.132-.073a.534.534 0 0 0 .13-.105c.028-.027.054-.056.08-.086z"/>
    </g>
</svg>
