<svg width="18" height="14" viewBox="0 0 18 14" xmlns="http://www.w3.org/2000/svg">
    <path d="M6.789 3.442h8.818L12.985 1.03a.551.551 0 0 1 0-.845c.258-.241.659-.241.917 0l3.739 3.407c.121.106.192.26.195.42a.573.573 0 0 1-.195.423l-3.707 3.407a.673.673 0 0 1-.917 0 .551.551 0 0 1 0-.845l2.558-2.35H6.79c-2.458 0-4.426 1.808-4.426 4.07 0 2.26 1.968 4.068 4.425 4.068h6.72c.361 0 .656.271.656.603 0 .331-.295.602-.656.602H6.79c-3.18 0-5.737-2.35-5.737-5.275 0-2.923 2.557-5.274 5.736-5.274z" fill-rule="nonzero"/>
</svg>
