<svg width="17" height="16" viewBox="0 0 17 16" xmlns="http://www.w3.org/2000/svg">
    <path d="m.1 5.144 3.667-.03 1.802 3.341-1.039-.563-1.375 2.249c-.762.01-1.58-.024-2.107-.313C.513 9.534-.327 8.693.16 7.829l.978-1.873-1.04-.81v-.002zm.152 4.588c.694.77 1.6.915 2.292.874l4.461.031v3.9H4.652c-.876.023-1.72-.113-2.169-.684L.251 9.73l.001.002zm14.032-7.595-1.75 3.22-3.795-.042.996-.636-1.298-2.292c.362-.672.788-1.371 1.296-1.691.513-.329 1.656-.653 2.175.192l1.163 1.764 1.213-.516v.001zM10.201.047c-1.01.232-1.574.955-1.876 1.58l-2.19 3.885-3.413-1.89 1.141-2.06C4.27.787 4.798.115 5.515 0l4.686.047zm.204 15.9-1.968-3.092 1.874-3.301.075 1.178 2.635-.024c.414.64.818 1.353.853 1.953.034.609-.233 1.766-1.225 1.81l-2.107.163-.138 1.311v.001zm3.807-2.56c.287-.994-.07-1.84-.474-2.407l-2.335-3.8 3.308-2.066 1.246 1.994c.481.733.816 1.52.568 2.204l-2.313 4.075z" fill="#8590A6" fill-rule="nonzero"/>
</svg>
