<svg width="15" height="16" viewBox="0 0 15 16" xmlns="http://www.w3.org/2000/svg">
    <g fill-rule="nonzero">
        <path d="M14.682 6.262a.456.456 0 0 0-.356-.132l-4.137.29a.46.46 0 0 0-.418.37.455.455 0 0 0 .25.498c.277.135.642.323 1.09.558-.508.781-1.616 1.21-3.162 1.21-1.04 0-2.212-.222-3.13-.594a.457.457 0 0 0-.486.757c1.924 1.803 3.919 2.072 4.936 2.072 1.418 0 3.089-.56 3.786-1.61.192.386.416.831.606 1.184a.455.455 0 0 0 .858-.18l.293-4.067a.446.446 0 0 0-.13-.356z"/>
        <path d="M11.932 14.447H3.278V2.907h8.654V4.1h1.49V2.906h.698a.68.68 0 0 0 .697-.697.68.68 0 0 0-.697-.697H9.843c0-.796-.697-1.49-1.49-1.49h-1.49c-.796 0-1.395.697-1.395 1.49h-4.38a.68.68 0 0 0-.697.697.68.68 0 0 0 .697.697h.698v11.541c0 .796.697 1.49 1.49 1.49h8.654c.795 0 1.49-.697 1.49-1.49v-2.19c-.497.298-.995.596-1.49.697v1.493h.002z"/>
    </g>
</svg>
