<svg width="17" height="14" viewBox="0 0 17 14" xmlns="http://www.w3.org/2000/svg">
    <path d="M11.05 3.442H2.232L4.854 1.03a.551.551 0 0 0 0-.845.673.673 0 0 0-.917 0L.199 3.593a.573.573 0 0 0-.196.42.573.573 0 0 0 .196.423l3.706 3.407c.258.241.659.241.917 0a.551.551 0 0 0 0-.845l-2.558-2.35h8.785c2.459 0 4.426 1.808 4.426 4.07 0 2.26-1.967 4.068-4.425 4.068H4.33c-.36 0-.656.271-.656.603 0 .331.295.602.656.602h6.719c3.18 0 5.737-2.35 5.737-5.275 0-2.923-2.557-5.274-5.736-5.274z" fill-rule="nonzero"/>
</svg>
