<svg width="14" height="14" viewBox="0 0 14 14" xmlns="http://www.w3.org/2000/svg">
    <g fill="#FFF" fill-rule="nonzero">
        <path d="M9.884 0c2.196 0 3.294 1.098 3.294 3.294v4.118c0 2.196-1.098 3.294-3.294 3.294H3.296C1.1 10.706.002 9.608.002 7.412V3.294C.002 1.098 1.1 0 3.296 0h6.588zM9.06 4.941H4.12c-.55 0-.824.275-.824.824l.005.122c.039.467.311.701.818.701H9.06c.55 0 .824-.274.824-.823l-.005-.122c-.039-.468-.312-.702-.819-.702zM2.472 12.353h8.235c.55 0 .824.274.824.823 0 .55-.274.824-.824.824H2.472c-.549 0-.823-.275-.823-.824 0-.549.274-.823.823-.823z"/>
        <path d="M5.766 12.765V9.47c0-.55.275-.824.824-.824.549 0 .823.275.823.824v3.294c0 .549-.274.823-.823.823-.55 0-.824-.274-.824-.823z"/>
    </g>
</svg>
