<svg width="14" height="16" viewBox="0 0 14 16" xmlns="http://www.w3.org/2000/svg">
    <g fill="#333F48" fill-rule="nonzero">
        <path d="M13.314 6.916C13.645 2.95 10.484 0 6.664 0 2.844 0-.23 2.99.014 6.916c.184 2.982 4.254 6.499 5.956 7.754H1.61V16h10.108v-1.33h-4.36c1.702-1.255 5.703-4.71 5.956-7.754zm-6.65 6.651s-4.901-3.543-5.32-6.65C.908 3.7 3.578 1.33 6.663 1.33c3.085 0 5.57 2.35 5.32 5.586-.238 3.076-5.32 6.651-5.32 6.651z"/>
        <path d="M6.664 3.46a2.871 2.871 0 1 0 0 5.742 2.871 2.871 0 0 0 0-5.743zm0 4.524a1.654 1.654 0 1 1 0-3.307 1.654 1.654 0 0 1 0 3.307z"/>
    </g>
</svg>
