<svg width="16" height="14" viewBox="0 0 16 14" xmlns="http://www.w3.org/2000/svg">
    <path d="M14.942 5.825c-.058-.318-.372-.643-.7-.713L14 5.057a2.42 2.42 0 0 1-1.406-1.083 2.318 2.318 0 0 1-.259-1.738l.078-.224c.097-.31-.03-.737-.285-.949 0 0-.23-.189-.875-.552-.647-.361-.925-.462-.925-.462-.314-.112-.755-.005-.985.233l-.17.177a2.44 2.44 0 0 1-1.666.644 2.45 2.45 0 0 1-1.671-.65L5.67.283c-.226-.238-.669-.343-.985-.233 0 0-.281.1-.928.462-.647.367-.873.556-.873.556a.95.95 0 0 0-.285.945l.07.225a2.32 2.32 0 0 1-.259 1.737A2.41 2.41 0 0 1 .996 5.06l-.235.052c-.322.072-.64.393-.7.713 0 0-.053.286-.053 1.013 0 .728.053 1.014.053 1.014.059.321.373.642.7.713l.23.052a2.4 2.4 0 0 1 1.416 1.089c.322.547.4 1.17.259 1.738l-.067.221c-.098.31.03.736.285.949 0 0 .23.189.875.552.647.363.925.462.925.462.314.112.755.004.984-.233l.162-.17a2.461 2.461 0 0 1 1.674-.65c.649 0 1.24.25 1.675.653l.161.169c.227.237.67.343.985.232 0 0 .281-.1.928-.462.647-.363.874-.552.874-.552.255-.209.382-.636.285-.948l-.07-.23a2.303 2.303 0 0 1 .258-1.73c.323-.547.841-.922 1.416-1.089l.23-.051c.322-.073.64-.394.7-.713 0 0 .053-.286.053-1.014-.003-.728-.057-1.015-.057-1.015zM7.506 9.752c-1.649 0-2.989-1.302-2.989-2.914 0-1.607 1.337-2.91 2.99-2.91 1.648 0 2.988 1.303 2.988 2.914-.003 1.608-1.34 2.91-2.989 2.91z" fill="#FFF" fill-rule="nonzero"/>
</svg>
