<svg width="32" height="20" viewBox="0 0 32 20" xmlns="http://www.w3.org/2000/svg">
    <path d="M13.003.11c.281.093.542.365.69.791l3.238 9.363c.227.655.045 1.18-.38 1.343-.427.163-.92-.103-1.147-.759l-1.01-2.92H10.29L9.28 10.85c-.227.655-.72.922-1.147.759-.425-.163-.607-.688-.38-1.344L10.992.9c.141-.408.386-.675.654-.778.178-.095.438-.11.696-.11.246 0 .49.013.661.097zm-2.137 6.155h2.952L12.342 2l-1.476 4.265zm15.329 11.998c.419 0 .75.368.75.832 0 .463-.331.831-.75.831H6.751c-.419 0-.751-.368-.751-.831 0-.464.345-.832.751-.832h19.445-.001zm.01-13.365c.418 0 .75.368.75.832 0 .463-.332.831-.75.831H20.22c-.419 0-.751-.368-.751-.831 0-.464.332-.832.751-.832h5.985zm0-4.825c.419 0 .75.368.75.832 0 .463-.332.831-.75.831H20.22c-.419 0-.751-.368-.751-.831 0-.463.332-.832.751-.832h5.985zm-.01 13.75c.419 0 .75.368.75.832 0 .463-.332.831-.75.831H6.75c-.419 0-.751-.369-.751-.832 0-.45.345-.831.751-.831h19.445-.001zm0-4.125c.419 0 .75.367.75.831 0 .463-.332.832-.75.832H20.21c-.419 0-.75-.369-.75-.832 0-.463.332-.831.75-.831h5.984z" fill-rule="nonzero"/>
</svg>
