<svg width="32" height="20" viewBox="0 0 32 20" xmlns="http://www.w3.org/2000/svg">
    <path d="M21.65 14.87h-.348L16.435 3.157a.539.539 0 0 0-.991 0L10.68 14.87h-.33a.478.478 0 0 0-.47.304.54.54 0 0 0 .496.748h1.504a.53.53 0 0 0 .539-.426.504.504 0 0 0-.426-.583l.965-2.382h4.346l.947 2.382a.513.513 0 0 0-.426.583.53.53 0 0 0 .54.426h3.285a.478.478 0 0 0 .47-.305.522.522 0 0 0-.47-.747zm-8.31-3.409 1.739-4.295 1.738 4.295H13.34zM6.647 9.27a.33.33 0 0 0 .322.322.33.33 0 0 0 .321-.322v-.643a.33.33 0 0 0-.321-.322.33.33 0 0 0-.322.322v.643zm0-2.06a.33.33 0 0 0 .322.321.33.33 0 0 0 .321-.322v-.643a.33.33 0 0 0-.321-.322.33.33 0 0 0-.322.322v.643zm0 4.095a.33.33 0 0 0 .322.321.33.33 0 0 0 .321-.321v-.644a.33.33 0 0 0-.321-.322.33.33 0 0 0-.322.322v.644zm.322-5.878a.33.33 0 0 0 .321-.322v-.617a.322.322 0 0 0-.321-.305.33.33 0 0 0-.322.322v.644a.296.296 0 0 0 .322.304v-.026zm-.322 7.964a.33.33 0 0 0 .322.322.33.33 0 0 0 .321-.322v-.643a.33.33 0 0 0-.321-.322.33.33 0 0 0-.322.322v.643zm0 2.061a.304.304 0 0 0 .322.322.33.33 0 0 0 .321-.322v-.67a.33.33 0 0 0-.321-.321.33.33 0 0 0-.322.322v.67zM24.692 9.27a.322.322 0 1 0 .643 0v-.643a.322.322 0 1 0-.643 0v.643zm0-2.06a.322.322 0 1 0 .643 0v-.644a.322.322 0 1 0-.643 0v.643zm0 4.12a.322.322 0 1 0 .643 0v-.643a.322.322 0 1 0-.643 0v.644zm.304-5.877a.33.33 0 0 0 .322-.322v-.643a.322.322 0 1 0-.643 0v.643a.33.33 0 0 0 .321.322zm-.304 7.938a.322.322 0 1 0 .643 0v-.643a.322.322 0 1 0-.643 0v.643zm0 2.061a.322.322 0 1 0 .643 0v-.67a.322.322 0 1 0-.643 0v.67zm-9.422 3.243h-.643a.322.322 0 0 0 0 .644h.643a.322.322 0 0 0 0-.644zm-2.06 0h-.643a.322.322 0 0 0 0 .644h.643a.322.322 0 0 0 0-.644zm4.12 0h-.643a.322.322 0 0 0 0 .644h.617a.322.322 0 0 0 0-.644h.026zm-6.198 0h-.643a.322.322 0 0 0 0 .644h.643a.33.33 0 0 0 .322-.322.313.313 0 0 0-.322-.322zm-2.034-.217h-.973v-.304a.34.34 0 0 0-.348-.34h-.504V16.8a.34.34 0 0 0-.321-.34.34.34 0 0 0-.322.34v1.035h-.278a.339.339 0 0 0-.348.339v1.434a.34.34 0 0 0 .348.392h1.39a.339.339 0 0 0 .348-.34v-.304h1a.426.426 0 0 0 .347-.382c0-.192-.347-.452-.347-.452l.008-.044zm10.3.217h-.643a.322.322 0 0 0 0 .644h.643a.322.322 0 0 0 0-.644zm2.06 0h-.677a.322.322 0 0 0 0 .644h.643a.33.33 0 0 0 .321-.322.313.313 0 0 0-.321-.322h.035zm-6.823-17.39h.643a.33.33 0 0 0 .287-.356.33.33 0 0 0-.321-.322h-.617a.33.33 0 0 0-.322.322.33.33 0 0 0 .322.322l.008.034zm-2.06 0h.643a.33.33 0 0 0 .322-.321.33.33 0 0 0-.33-.357h-.643a.33.33 0 0 0-.322.322.33.33 0 0 0 .322.322l.008.034zm4.12 0h.609a.33.33 0 0 0 .321-.321.33.33 0 0 0-.321-.357h-.643a.33.33 0 0 0-.322.322.33.33 0 0 0 .322.322l.034.034zm-6.18 0h.643a.33.33 0 0 0 .322-.321.33.33 0 0 0-.33-.357h-.643a.34.34 0 0 0-.322.348.287.287 0 0 0 .322.304l.008.026zM9.072.645h-.964V.348A.34.34 0 0 0 7.742 0h-1.39a.339.339 0 0 0-.348.348V1.74a.34.34 0 0 0 .348.348h.295v1a.426.426 0 0 0 .383.348c.174 0 .452-.348.452-.348v-.965h.26a.339.339 0 0 0 .348-.348V1.27h1A.33.33 0 0 0 9.41.949a.33.33 0 0 0-.347-.305h.008zm9.675.626h.643a.33.33 0 0 0 .321-.322.33.33 0 0 0-.321-.322h-.643a.33.33 0 0 0-.322.322.33.33 0 0 0 .322.322zm2.077 0h.643a.295.295 0 0 0 .304-.305.33.33 0 0 0-.321-.322h-.67a.33.33 0 0 0-.321.322.322.322 0 0 0 .339.305h.026zM25.614 0H24.17a.34.34 0 0 0-.339.348v.295h-.964a.426.426 0 0 0-.34.383c0 .174.34.452.34.452h.964v.261a.34.34 0 0 0 .34.348h.512v1.07a.322.322 0 1 0 .643 0V2.13h.305a.339.339 0 0 0 .365-.391V.349A.374.374 0 0 0 25.63 0h-.018zm0 17.834h-.305v-.965a.426.426 0 0 0-.382-.34c-.192 0-.452.34-.452.34v.965h-.305a.339.339 0 0 0-.339.339v.513h-.964a.322.322 0 0 0 0 .643h.964v.305c0 .187.152.339.34.339h1.434a.339.339 0 0 0 .339-.34V18.2a.348.348 0 0 0-.34-.365h.01z"/>
</svg>
