<svg width="17" height="16" viewBox="0 0 17 16" xmlns="http://www.w3.org/2000/svg">
    <path d="M.598 4.775a.567.567 0 0 1-.572-.563c0-.31.256-.562.572-.562h3.439C4.19 1.594 5.93.004 8.026.004c2.095 0 3.835 1.59 3.99 3.646h3.438c.204 0 .393.107.495.28a.555.555 0 0 1 0 .564.574.574 0 0 1-.495.28h-1.192l-.984 9.355c-.097.916-.83 1.609-1.704 1.609H4.476c-.873 0-1.606-.693-1.702-1.61l-.987-9.353H.597zm3.312 9.22a.583.583 0 0 0 .567.536h7.097a.583.583 0 0 0 .568-.535l.972-9.221H2.938l.973 9.22zM10.87 3.65c-.145-1.437-1.375-2.532-2.843-2.532S5.328 2.213 5.183 3.65h5.685zm-1.015 8.714L9.17 11.24h.836l-.99-1.687.647-1.146 1.828 3.114a.554.554 0 0 1 0 .562.573.573 0 0 1-.496.28H9.855zm-1.142 0H5.056a.573.573 0 0 1-.495-.281.554.554 0 0 1 0-.562l.57-.971 1.333-.023-.418.713h1.98l.685 1.124h.001zm.38-4.931L8.442 8.58l-.417-.713-.99 1.686-1.332.023L7.53 6.46a.573.573 0 0 1 .495-.281c.204 0 .393.107.495.281l.571.973z"/>
</svg>
