<svg width="40" height="32" viewBox="0 0 40 32" xmlns="http://www.w3.org/2000/svg">
    <g fill="#367CF6" fill-rule="nonzero">
        <path d="M28.632 27.79v-1.965h1.684c3.93 0 7.017-3.088 7.017-7.018 0-3.368-2.526-6.175-5.894-6.737h-2.527v-.28c0-.843 0-1.404-.28-2.246-.843-4.491-4.772-7.86-8.983-7.86-4.21 0-8.14 3.369-9.263 7.86 0 .842-.28 1.684-.28 2.245v.281H7.86c-3.369.842-5.895 3.65-5.895 7.018 0 3.93 3.088 7.017 7.017 7.017h1.965v1.965H8.702C3.93 27.79 0 23.86 0 19.088c0-4.492 3.368-8.421 8.14-8.702h.281v-.561C9.544 4.21 14.035 0 19.65 0s10.105 4.21 10.947 10.105v.562h.562c4.491 0 8.14 3.93 8.14 8.42 0 4.773-3.93 8.702-8.702 8.702h-1.964z"/>
        <path d="M19.93 32c-.562 0-.842-.28-.842-.842V18.246l-4.21 4.21s-.282.28-.562.28c-.28 0-.562 0-.562-.28-.28-.28-.28-.561-.28-.842 0-.28 0-.561.28-.561l5.614-5.614c.281-.281.562-.281.562-.281s.561 0 .561.28l5.614 5.615c.562.28.562.561.562.561s0 .561-.281.561c-.28.281-.28.562-.561.562s-.562 0-.562-.28l-4.21-4.211v12.912c0 .561-.562.842-1.123.842z"/>
    </g>
</svg>
