<svg width="29" height="32" xmlns="http://www.w3.org/2000/svg">
    <g fill-rule="nonzero" fill="none">
        <path d="M27.225 5.885 22.14.784 21.356 0v3.998c0 1.471 1.2 2.67 2.67 2.67h3.999l-.8-.783z" fill="#B0B0FF"/>
        <path d="M25.354 6.669h-1.327c-1.471 0-2.67-1.2-2.67-2.671V0H2.692C1.223 0 .023 1.2.023 2.67v26.66c0 1.47 1.2 2.67 2.67 2.67h22.661c1.471 0 2.67-1.2 2.67-2.67V6.668h-2.67z" fill="#8183F1"/>
        <path fill="#FFF" d="M18 14.497v4.008L22 21v-9l-4 2.495zM16.59 21S18 21 18 19.69v-6.379C18 12 16.59 12 16.59 12H8.41S7 12 7 13.311v6.38C7 21 8.41 21 8.41 21h8.18z"/>
    </g>
</svg>
