<?xml version="1.0" encoding="UTF-8"?>
<svg width="31px" height="31px" viewBox="0 0 31 31" version="1.1" xmlns="http://www.w3.org/2000/svg" xmlns:xlink="http://www.w3.org/1999/xlink">
    <title>中</title>
    <g id="首页/新闻/活动/专题" stroke="none" stroke-width="1" fill="none" fill-rule="evenodd">
        <g id="中英切换" transform="translate(-1080.000000, -39.000000)" fill-rule="nonzero">
            <g id="导航" transform="translate(48.000000, 24.000000)">
                <g id="zhongyingwen" transform="translate(1032.000000, 15.000000)">
                    <path d="M28,15 C29.6568542,15 31,16.3431458 31,18 L31,28 C31,29.6568542 29.6568542,31 28,31 L18,31 C16.3431458,31 15,29.6568542 15,28 L15,18 C15,16.3431458 16.3431458,15 18,15 L28,15 Z M27.570108,16.4206038 L18.4460345,16.4206038 C17.341465,16.4206038 16.4460345,17.3160343 16.4460345,18.4206038 L16.4460345,27.5749454 C16.4460345,28.6795149 17.341465,29.5749454 18.4460345,29.5749454 L27.570108,29.5749454 C28.6746775,29.5749454 29.570108,28.6795149 29.570108,27.5749454 L29.570108,18.4206038 C29.570108,17.3160343 28.6746775,16.4206038 27.570108,16.4206038 Z M25.84506,19.146 L25.84506,20.246 L21.057,20.246 L21.057,22.424 L25.58106,22.424 L25.58106,23.524 L21.057,23.524 L21.057,25.9 L26.03206,25.9 L26.03206,27 L19.77,27 L19.77,19.146 L25.84506,19.146 Z" id="形状" fill="#333F48"></path>
                    <g id="编组">
                        <rect id="矩形" fill="#333F48" x="0" y="0" width="22" height="22" rx="3"></rect>
                        <polygon id="路径" fill="#FFFFFF" points="10.0191652 4.15185778 11.3355222 4.15185778 11.3355222 6.80294467 16.388696 6.80294467 16.388696 13.823097 15.072339 13.823097 15.072339 12.9959636 11.3355222 12.9959636 11.3355222 17.8739396 10.082834 17.8739396 10.082834 12.9959636 6.45218166 12.9959636 6.45218166 13.823097 5.13582466 13.823097 5.13582466 6.80294467 10.082834 6.80294467"></polygon>
                        <polygon id="路径" fill="#333F48" points="6.452219 11.638583 10.0616235 11.638583 10.0616235 8.16032532 6.45218166 8.16032532"></polygon>
                        <polygon id="路径" fill="#333F48" points="11.3355222 11.638583 15.072339 11.638583 15.072339 8.16032532 11.3355222 8.16032532"></polygon>
                    </g>
                </g>
            </g>
        </g>
    </g>
</svg>